<svg width="36" height="36" viewBox="0 0 36 36" fill="none" xmlns="http://www.w3.org/2000/svg">
<path d="M3 28.5V25.5H33V28.5H3ZM4.725 19.425L2.775 18.3L4.05 16.05H1.5V13.8H4.05L2.775 11.625L4.725 10.5L6 12.675L7.275 10.5L9.225 11.625L7.95 13.8H10.5V16.05H7.95L9.225 18.3L7.275 19.425L6 17.175L4.725 19.425ZM16.725 19.425L14.775 18.3L16.05 16.05H13.5V13.8H16.05L14.775 11.625L16.725 10.5L18 12.675L19.275 10.5L21.225 11.625L19.95 13.8H22.5V16.05H19.95L21.225 18.3L19.275 19.425L18 17.175L16.725 19.425ZM28.725 19.425L26.775 18.3L28.05 16.05H25.5V13.8H28.05L26.775 11.625L28.725 10.5L30 12.675L31.275 10.5L33.225 11.625L31.95 13.8H34.5V16.05H31.95L33.225 18.3L31.275 19.425L30 17.175L28.725 19.425Z" fill="#F3F3F3"/>
</svg>
