<svg width="29" height="23" viewBox="0 0 29 23" fill="none" xmlns="http://www.w3.org/2000/svg">
<path d="M2.85 22.8C2.06625 22.8 1.39531 22.5209 0.837188 21.9628C0.279062 21.4047 0 20.7337 0 19.95V2.85C0 2.06625 0.279062 1.39531 0.837188 0.837188C1.39531 0.279062 2.06625 0 2.85 0H25.65C26.4338 0 27.1047 0.279062 27.6628 0.837188C28.2209 1.39531 28.5 2.06625 28.5 2.85V19.95C28.5 20.7337 28.2209 21.4047 27.6628 21.9628C27.1047 22.5209 26.4338 22.8 25.65 22.8H2.85ZM14.25 12.825L2.85 5.7V19.95H25.65V5.7L14.25 12.825ZM14.25 9.975L25.65 2.85H2.85L14.25 9.975ZM2.85 5.7V2.85V19.95V5.7Z" fill="white"/>
</svg>
