<svg width="82" height="82" viewBox="0 0 82 82" fill="none" xmlns="http://www.w3.org/2000/svg">
<g clip-path="url(#clip0_15_183)">
<rect x="30" width="60" height="60" rx="12" transform="rotate(30 30 0)" fill="#F06269"/>
<path d="M12.4103 50.4663L34.9103 11.4952L39.2404 13.9952L36.7404 18.3253L41.0705 20.8253L43.5705 16.4952L60.891 26.4952L58.391 30.8253L62.7212 33.3253L65.2212 28.9952L69.5513 31.4952L47.0513 70.4663L42.7212 67.9663L45.2212 63.6362L40.891 61.1362L38.391 65.4663L21.0705 55.4663L23.5705 51.1362L19.2404 48.6362L16.7404 52.9663L12.4103 50.4663ZM21.7404 44.3061L26.0705 46.8061L28.5705 42.4759L24.2404 39.9759L21.7404 44.3061ZM26.7404 35.6458L31.0705 38.1458L33.5705 33.8157L29.2404 31.3157L26.7404 35.6458ZM31.7404 26.9856L36.0705 29.4856L38.5705 25.1554L34.2404 22.6554L31.7404 26.9856ZM43.391 56.8061L47.7212 59.3061L50.2212 54.9759L45.891 52.4759L43.391 56.8061ZM48.391 48.1458L52.7212 50.6458L55.2212 46.3157L50.891 43.8157L48.391 48.1458ZM53.391 39.4856L57.7212 41.9856L60.2212 37.6554L55.891 35.1554L53.391 39.4856ZM27.9007 53.6362L36.5609 58.6362L54.0609 28.3253L45.4007 23.3253L27.9007 53.6362Z" fill="#F3F3F3"/>
</g>
<defs>
<clipPath id="clip0_15_183">
<rect x="30" width="60" height="60" rx="12" transform="rotate(30 30 0)" fill="white"/>
</clipPath>
</defs>
</svg>
